<?xml version="1.0" encoding="UTF-8"?>
<svg width="45px" height="17px" viewBox="0 0 45 17" version="1.1" xmlns="http://www.w3.org/2000/svg" xmlns:xlink="http://www.w3.org/1999/xlink">
    <title>01_element/logo/bimbaylola-adaptative</title>
    <g id="Elementos" stroke="none" stroke-width="1" fill="none" fill-rule="evenodd">
        <g id="LOGO-&amp;-ICONS" transform="translate(-101.000000, -338.000000)" fill="#000000" fill-rule="nonzero">
            <g id="01_element/logo/bimbaylola-adaptative" transform="translate(101.000000, 338.000000)">
                <path d="M9.504,17 C12.32,17 14.652,15.548 14.652,12.732 C14.652,9.916 12.54,9.234 11.55,8.992 L11.55,8.772 C12.496,8.508 14.432,7.76 14.432,5.076 C14.432,2.392 12.276,1.16 9.504,1.16 L1.276,1.16 L1.276,17 L9.504,17 Z M8.404,7.54 L5.324,7.54 L5.324,4.064 L8.404,4.064 C9.658,4.064 10.472,4.614 10.472,5.802 C10.472,6.99 9.658,7.54 8.404,7.54 Z M8.448,14.096 L5.324,14.096 L5.324,10.444 L8.448,10.444 C9.724,10.444 10.692,10.972 10.692,12.27 C10.692,13.568 9.724,14.096 8.448,14.096 Z M25.564,17 L25.564,11.588 L31.812,1.49 L31.812,1.16 L27.258,1.16 L23.65,7.694 L23.43,7.694 L19.822,1.16 L15.268,1.16 L15.268,1.49 L21.516,11.588 L21.516,17 L25.564,17 Z M44.484,17 L44.484,14.096 L37.356,14.096 L37.356,1.16 L33.308,1.16 L33.308,17 L44.484,17 Z" id="BYL"></path>
            </g>
        </g>
    </g>
</svg>